<svg width="104" height="104" viewBox="0 0 104 104" fill="none" xmlns="http://www.w3.org/2000/svg">
<path fill-rule="evenodd" clip-rule="evenodd" d="M65.7449 3.40452H69.884C70.721 3.40452 71.4009 2.80352 71.4009 2.06152V1.69352C71.4009 0.951525 70.721 0.350525 69.884 0.350525H30.5169C29.6777 0.350525 29 0.951525 29 1.69352V2.06152C29 2.80352 29.6777 3.40452 30.5169 3.40452H38.1059L40.0139 7.67974C40.0139 7.67974 52.2646 10.6504 63.8369 7.67974L65.7449 3.40452Z" fill="#FFC024"/>
<path fill-rule="evenodd" clip-rule="evenodd" d="M22.224 62.5268C23.0068 57.1837 24.3575 52.2786 25.9828 47.71C34.3882 49.636 52.3095 52.1846 77.662 47.5669C79.3105 52.1761 80.679 57.1282 81.4706 62.5268C83.8332 78.6478 82.2378 89.1865 81.1761 93.7903C75.0503 90.8966 63.5083 89.4033 52.0615 89.4033C40.3657 89.4033 28.5779 90.9628 22.5617 93.9815C21.5 89.4706 19.8326 78.8497 22.224 62.5268ZM23.1367 96.7147C23.1367 96.7147 23.0844 96.5715 23.0009 96.3022C27.5552 93.9513 37.8265 91.7501 52.1088 91.7501C66.1204 91.7501 76.2714 93.8684 80.9516 96.1687C79.5408 100.521 67.1048 103.924 51.9674 103.924C37.4691 103.924 25.4507 100.802 23.2202 96.7147H23.1367Z" fill="#FF4E42"/>
<path fill-rule="evenodd" clip-rule="evenodd" d="M77.0004 45.444C71.7803 31.459 64.4195 20.5341 62.7819 10C50.6726 13.7304 40.2616 10 40.2616 10C38.6195 20.5642 31.2216 31.5225 26.0004 45.5642C34.4169 47.4662 52.2561 49.9883 77.0004 45.444Z" fill="#FAFAED"/>
<path fill-rule="evenodd" clip-rule="evenodd" d="M76.9255 71C76.3669 71 75.8953 70.5741 75.8555 70.0168C73.6062 39.1376 61.3248 21.8466 61.2002 21.675C60.8554 21.1983 60.9682 20.5372 61.4505 20.1971C61.9328 19.857 62.6053 19.9683 62.9479 20.444C63.4689 21.1623 75.7062 38.396 77.9975 69.8643C78.0405 70.448 77.5947 70.9555 77.0028 70.9979C76.977 70.9989 76.9512 71 76.9255 71Z" fill="#FAFAED"/>
</svg>
