<svg width="104" height="104" viewBox="0 0 104 104" fill="none" xmlns="http://www.w3.org/2000/svg">
<path fill-rule="evenodd" clip-rule="evenodd" d="M51.9385 8.94157L51.9405 8.93915C53.1627 7.4362 54.6823 5.56765 57.6723 5.56765C60.6631 5.56765 62.1827 7.43622 63.4051 8.93939L63.406 8.94049C64.6091 10.4233 65.3673 11.2625 66.9289 11.2625C68.4863 11.2625 69.2423 10.4244 70.4476 8.94157C71.668 7.43821 73.1875 5.56765 76.177 5.56765C79.1653 5.56765 80.6838 7.43821 81.9031 8.94157C83.1052 10.4244 83.8623 11.2625 85.4185 11.2625C85.4202 11.2625 85.4218 11.2627 85.4232 11.263C85.4243 11.2632 85.4253 11.2634 85.4263 11.2637C85.4285 11.2642 85.4305 11.2647 85.4326 11.2647V0.687134H48.4037V11.2657C48.4051 11.2654 48.4065 11.2649 48.4078 11.2644C48.4104 11.2635 48.4131 11.2625 48.4167 11.2625C49.9773 11.2625 50.7354 10.4233 51.9385 8.94157ZM51.9405 25.089L51.9385 25.0915C50.7354 26.5732 49.9773 27.4124 48.4167 27.4124C48.4138 27.4124 48.4116 27.4133 48.4094 27.4141C48.4075 27.4149 48.4057 27.4156 48.4037 27.4156V14.1068C48.4057 14.1068 48.4075 14.1075 48.4094 14.1083C48.4116 14.1091 48.4138 14.11 48.4167 14.11C51.408 14.11 52.9275 12.2398 54.149 10.7365L54.1493 10.7361C55.3535 9.25434 56.1106 8.41518 57.6723 8.41518C59.2339 8.41518 59.991 9.25434 61.1952 10.7361L61.1955 10.7365C62.417 12.2398 63.9365 14.11 66.9289 14.11C69.9173 14.11 71.4379 12.2395 72.6583 10.7361C73.8615 9.25434 74.6196 8.41518 76.177 8.41518C77.7333 8.41518 78.4903 9.25326 79.6924 10.7361C80.9117 12.2395 82.4291 14.11 85.4185 14.11C85.4214 14.11 85.4239 14.1091 85.4263 14.1083C85.4285 14.1075 85.4305 14.1068 85.4326 14.1068V27.4145C85.4308 27.4145 85.429 27.4142 85.4271 27.4137L85.424 27.413C85.4223 27.4127 85.4205 27.4124 85.4185 27.4124C83.8623 27.4124 83.1052 26.5743 81.9031 25.0915C80.6838 23.5881 79.1653 21.7175 76.177 21.7175C73.1875 21.7175 71.668 23.5881 70.4476 25.0915C69.2423 26.5743 68.4863 27.4124 66.9289 27.4124C65.3673 27.4124 64.6091 26.5732 63.406 25.0904L63.4027 25.0863C62.1807 23.5847 60.6612 21.7175 57.6723 21.7175C54.6823 21.7175 53.1627 23.5861 51.9405 25.089ZM79.6924 26.8855C80.9117 28.3888 82.4291 30.2594 85.4185 30.2594C85.4199 30.2594 85.4212 30.2592 85.4225 30.259C85.4238 30.2588 85.4251 30.2585 85.4263 30.2582C85.4276 30.2579 85.4288 30.2576 85.4299 30.2574C85.4308 30.2573 85.4317 30.2572 85.4326 30.2572V43.565C85.4317 43.565 85.4307 43.5648 85.4298 43.5646C85.4295 43.5645 85.4292 43.5644 85.429 43.5644L85.4266 43.5636L85.4263 43.5635C85.4249 43.563 85.4235 43.5625 85.422 43.5621C85.4209 43.5619 85.4197 43.5617 85.4185 43.5617C83.8623 43.5617 83.1052 42.7247 81.9031 41.2408C80.6838 39.7385 79.1653 37.868 76.177 37.868C73.1876 37.868 71.668 39.7385 70.4476 41.2408L70.4476 41.2408C69.2423 42.7247 68.4863 43.5617 66.9289 43.5617C65.3673 43.5617 64.6091 42.7237 63.406 41.2408L63.4051 41.2397C62.1827 39.7365 60.6631 37.868 57.6723 37.868C54.6834 37.868 53.1638 39.7352 51.9418 41.2367L51.9385 41.2408C50.7354 42.7237 49.9773 43.5617 48.4167 43.5617C48.4138 43.5617 48.4116 43.5626 48.4094 43.5635C48.4075 43.5643 48.4057 43.565 48.4037 43.565V30.2572C48.4057 30.2572 48.4075 30.2577 48.4094 30.2582H48.4094H48.4094C48.4116 30.2588 48.4138 30.2594 48.4167 30.2594C51.4083 30.2594 52.9278 28.3899 54.1493 26.8865C55.3535 25.4037 56.1106 24.5656 57.6723 24.5656C59.2339 24.5656 59.991 25.4037 61.1952 26.8865C62.4167 28.3899 63.9363 30.2594 66.9289 30.2594C69.9173 30.2594 71.4379 28.3888 72.6583 26.8865C73.8615 25.4037 74.6196 24.5656 76.177 24.5656C77.7333 24.5656 78.4903 25.4037 79.6924 26.8855ZM76.1772 40.7155C77.7335 40.7155 78.4906 41.5536 79.6926 43.0353L79.6933 43.0363C80.9125 44.5395 82.4299 46.4103 85.4188 46.4103C85.4218 46.4103 85.4245 46.4093 85.4269 46.4084C85.4287 46.4077 85.4303 46.4071 85.4317 46.4071V53.9315H48.4028V46.4071C48.4055 46.4071 48.4077 46.4079 48.4099 46.4087C48.412 46.4095 48.4142 46.4103 48.4169 46.4103C51.4082 46.4103 52.9278 44.5401 54.1492 43.0368L54.1495 43.0364C55.3537 41.5536 56.1108 40.7155 57.6714 40.7155C59.2342 40.7155 59.9912 41.5536 61.1954 43.0364L61.1958 43.0368C62.4172 44.5401 63.9367 46.4103 66.9292 46.4103C69.9166 46.4103 71.4362 44.5398 72.6564 43.0378L72.6575 43.0364C73.8617 41.5536 74.6198 40.7155 76.1772 40.7155Z" fill="#FAFAED"/>
<path fill-rule="evenodd" clip-rule="evenodd" d="M37.5705 32.4627C37.3686 31.8925 37.1202 31.3374 36.8113 30.8103C35.4213 28.4419 32.7678 26.0594 27.7134 25.9989C24.0414 25.9557 21.6103 27.1675 19.9989 28.7248C17.1661 30.5749 17.0419 35.153 17.0419 35.153C17.0419 35.153 17.0494 35.1552 17.0505 35.1552C16.9933 35.8129 16.9803 36.4738 17.0343 37.1348L22.173 99.1797C22.3825 101.709 24.307 103.653 26.629 103.68C28.9424 103.707 30.9069 101.826 31.1877 99.3147L37.996 38.4924C38.3514 35.3139 37.5705 32.4627 37.5705 32.4627Z" fill="#FF4E42"/>
<path fill-rule="evenodd" clip-rule="evenodd" d="M24.9155 28.4638C24.9155 28.4638 15.8337 7.35735 20.9065 7.56039C25.9793 7.76343 26.1013 15.8494 26.1013 15.8494C26.1013 15.8494 23.2285 -1.48353 29.4093 0.102994C35.5923 1.68843 29.8662 21.9773 29.8662 21.9773C29.8662 21.9773 32.942 11.3814 36.1885 13.3125C39.4339 15.2446 30.593 28.2834 30.593 28.2834C30.593 28.2834 29.5001 31.1314 24.9155 28.4638Z" fill="#FFC024"/>
<path fill-rule="evenodd" clip-rule="evenodd" d="M26.0933 61.4491C26.6948 61.4318 27.1657 60.9318 27.1495 60.3302C27.1322 59.7287 26.6322 59.2567 26.0295 59.274C21.1879 59.4155 19.8465 58.7146 19.7105 58.6325C19.4826 58.4338 19.191 58.356 18.9048 58.3787L19.1003 60.7439C19.2396 60.8001 19.3886 60.8562 19.5679 60.9124C20.6987 61.259 22.6697 61.5507 26.0933 61.4491Z" fill="#FFC024"/>
<path fill-rule="evenodd" clip-rule="evenodd" d="M26.7561 70.5332C27.3576 70.516 27.8285 70.0148 27.8134 69.4133C27.7939 68.8139 27.2939 68.343 26.6923 68.357C21.8475 68.4996 20.5104 67.7998 20.3722 67.7166C20.1681 67.5384 19.9132 67.4509 19.6572 67.4509L19.8559 69.8615C19.9737 69.9068 20.086 69.9522 20.2296 69.9954C21.3615 70.3432 23.3325 70.6348 26.7561 70.5332Z" fill="#FFC024"/>
<path fill-rule="evenodd" clip-rule="evenodd" d="M25.077 52.8007C25.6786 52.7834 26.1505 52.2823 26.1343 51.6818C26.116 51.0813 25.617 50.6094 25.0133 50.6256C20.1673 50.7681 18.8314 50.0672 18.6931 49.9841C18.5462 49.8555 18.3713 49.7907 18.1909 49.754L18.395 52.2067C18.449 52.2261 18.4912 52.2445 18.5506 52.2629C19.6824 52.6106 21.6523 52.9011 25.077 52.8007Z" fill="#FFC024"/>
<path fill-rule="evenodd" clip-rule="evenodd" d="M83.2987 69.1168H50.5358C49.3576 69.1168 48.4028 68.1621 48.4028 66.9838V59.4735C48.4028 58.2941 49.3576 57.3405 50.5358 57.3405H83.2987C84.4781 57.3405 85.4328 58.2941 85.4328 59.4735V66.9838C85.4328 68.1621 84.4781 69.1168 83.2987 69.1168Z" fill="#FFC024"/>
<path fill-rule="evenodd" clip-rule="evenodd" d="M81.1618 62.0494H67.6132C67.3152 62.0494 67.0732 61.8074 67.0732 61.5094C67.0732 61.2113 67.3152 60.9694 67.6132 60.9694H81.1618C81.4599 60.9694 81.7018 61.2113 81.7018 61.5094C81.7018 61.8074 81.4599 62.0494 81.1618 62.0494Z" fill="#1820EF"/>
<path fill-rule="evenodd" clip-rule="evenodd" d="M72.2675 65.3114H52.5942C52.2961 65.3114 52.0542 65.0695 52.0542 64.7714C52.0542 64.4734 52.2961 64.2314 52.5942 64.2314H72.2675C72.5656 64.2314 72.8075 64.4734 72.8075 64.7714C72.8075 65.0695 72.5656 65.3114 72.2675 65.3114Z" fill="#1820EF"/>
<path fill-rule="evenodd" clip-rule="evenodd" d="M83.2987 84.4024H50.5358C49.3576 84.4024 48.4028 83.4466 48.4028 82.2683V74.758C48.4028 73.5797 49.3576 72.625 50.5358 72.625H83.2987C84.4781 72.625 85.4328 73.5797 85.4328 74.758V82.2683C85.4328 83.4466 84.4781 84.4024 83.2987 84.4024Z" fill="#FFC024"/>
<path fill-rule="evenodd" clip-rule="evenodd" d="M65.6736 77.3338H52.125C51.8269 77.3338 51.585 77.0919 51.585 76.7938C51.585 76.4957 51.8269 76.2538 52.125 76.2538H65.6736C65.9716 76.2538 66.2136 76.4957 66.2136 76.7938C66.2136 77.0919 65.9716 77.3338 65.6736 77.3338Z" fill="#1820EF"/>
<path fill-rule="evenodd" clip-rule="evenodd" d="M82.1049 80.596H62.4316C62.1335 80.596 61.8916 80.3541 61.8916 80.056C61.8916 79.7579 62.1335 79.516 62.4316 79.516H82.1049C82.403 79.516 82.6449 79.7579 82.6449 80.056C82.6449 80.3541 82.403 80.596 82.1049 80.596Z" fill="#1820EF"/>
<path fill-rule="evenodd" clip-rule="evenodd" d="M53.6516 96.8941C51.6018 96.8941 49.9397 95.2331 49.9397 93.1822C49.9397 91.1334 51.6018 89.4724 53.6516 89.4724C55.7004 89.4724 57.3636 91.1334 57.3636 93.1822C57.3636 95.2331 55.7004 96.8941 53.6516 96.8941ZM53.6516 87.9344C50.7529 87.9344 48.4028 90.2845 48.4028 93.1822C48.4028 96.082 50.7529 98.432 53.6516 98.432C56.5504 98.432 58.8994 96.082 58.8994 93.1822C58.8994 90.2845 56.5504 87.9344 53.6516 87.9344ZM66.9175 102.142C64.8687 102.142 63.2066 100.481 63.2066 98.4313C63.2066 96.3815 64.8687 94.7204 66.9175 94.7204C68.9673 94.7204 70.6294 96.3815 70.6294 98.4313C70.6294 100.481 68.9673 102.142 66.9175 102.142ZM66.9175 93.1825C64.0188 93.1825 61.6698 95.5326 61.6698 98.4313C61.6698 101.33 64.0188 103.68 66.9175 103.68C69.8173 103.68 72.1663 101.33 72.1663 98.4313C72.1663 95.5326 69.8173 93.1825 66.9175 93.1825ZM76.4725 93.1822C76.4725 95.2331 78.1346 96.8941 80.1844 96.8941C82.2332 96.8941 83.8953 95.2331 83.8953 93.1822C83.8953 91.1334 82.2332 89.4724 80.1844 89.4724C78.1346 89.4724 76.4725 91.1334 76.4725 93.1822ZM74.9356 93.1822C74.9356 90.2845 77.2846 87.9344 80.1844 87.9344C83.0831 87.9344 85.4321 90.2845 85.4321 93.1822C85.4321 96.082 83.0831 98.432 80.1844 98.432C77.2846 98.432 74.9356 96.082 74.9356 93.1822Z" fill="#FFC024"/>
</svg>
